<svg xmlns="http://www.w3.org/2000/svg" viewBox="0 0 64 64" role="img" aria-label="WhatsApp">
  <path fill="#ffffff" d="M32 6C17.6 6 6 17.2 6 31.1c0 4.7 1.4 9.2 3.9 13.1L6.6 58l14.3-3.2c3.4 1.8 7.2 2.8 11.1 2.8 14.4 0 26-11.2 26-25.1S46.4 6 32 6Zm0 46.4c-3.6 0-7.1-.9-10.1-2.7l-1.1-.6-8.4 1.9 1.9-8.1-.7-1.2c-2.1-3.2-3.2-6.8-3.2-10.6 0-11.1 9.7-20.1 21.6-20.1s21.6 9 21.6 20.1S43.9 52.4 32 52.4Z"/>
  <path fill="#ffffff" d="M43.8 37.7c-.6-.3-3.8-1.8-4.4-2-.6-.2-1-.3-1.5.3-.4.6-1.7 2-2.1 2.4-.4.4-.8.5-1.4.2-.6-.3-2.7-1-5.2-3.1-1.9-1.7-3.2-3.7-3.6-4.3-.4-.6 0-.9.3-1.2.3-.3.6-.7.9-1.1.3-.4.4-.6.6-1 .2-.4.1-.8 0-1.1-.2-.3-1.5-3.5-2-4.8-.5-1.2-1.1-1-1.5-1h-1.2c-.4 0-1.1.2-1.7.8-.6.6-2.2 2.1-2.2 5.1s2.3 6 2.6 6.4c.3.4 4.5 6.7 10.9 9.3 1.5.6 2.7 1 3.7 1.3 1.6.5 3 .4 4.1.2 1.2-.2 3.8-1.5 4.3-2.9.5-1.4.5-2.7.4-2.9-.2-.3-.6-.4-1.2-.7Z"/>
</svg>